<svg xmlns="http://www.w3.org/2000/svg" viewBox="0 0 720 180" role="img" aria-labelledby="title desc">
  <title id="title">dicomqc logo</title>
  <desc id="desc">A lowercase dicomqc wordmark with a DICOM file and brain-slice audit mark.</desc>
  <defs>
    <linearGradient id="fold" x1="86" x2="132" y1="28" y2="76" gradientUnits="userSpaceOnUse">
      <stop offset="0" stop-color="#33d1b4"/>
      <stop offset="1" stop-color="#119b8f"/>
    </linearGradient>
  </defs>
  <g transform="translate(28 18)">
    <path d="M22 0h86l42 42v92c0 13.25-10.75 24-24 24H22c-13.25 0-24-10.75-24-24V24C-2 10.75 8.75 0 22 0Z" fill="#ffffff"/>
    <path d="M22 0h86l42 42v92c0 13.25-10.75 24-24 24H22c-13.25 0-24-10.75-24-24V24C-2 10.75 8.75 0 22 0Z" fill="none" stroke="#111827" stroke-width="10" stroke-linejoin="round"/>
    <path d="M108 0v34c0 13.25 10.75 24 24 24h18L108 0Z" fill="url(#fold)"/>
    <path d="M108 0v34c0 13.25 10.75 24 24 24h18" fill="none" stroke="#111827" stroke-width="10" stroke-linejoin="round"/>
    <circle cx="72" cy="84" r="43" fill="#f8fafc" stroke="#111827" stroke-width="7"/>
    <path d="M70 48c-14 1-25 12-27 26-9 4-15 13-15 23 0 14 11 25 25 25 7 0 14-3 19-8 6 5 14 8 22 5 9-3 15-12 15-22V65c0-10-8-18-18-18-8 0-15 5-19 12-4-7-10-11-18-11Z" fill="#111827"/>
    <path d="M74 48c14 1 25 12 27 26 9 4 15 13 15 23 0 14-11 25-25 25-7 0-14-3-19-8-6 5-14 8-22 5-9-3-15-12-15-22V65c0-10 8-18 18-18 8 0 15 5 19 12 4-7 10-11 18-11Z" fill="#111827" transform="translate(144 0) scale(-1 1)"/>
    <path d="M72 53c-5 8-5 17 0 25-6 8-6 18 0 27-5 6-5 13 0 20" fill="none" stroke="#ffffff" stroke-width="7" stroke-linecap="round" stroke-linejoin="round"/>
    <path d="M50 77c8 5 15 7 22 7s14-2 22-7" fill="none" stroke="#ffffff" stroke-width="5" stroke-linecap="round" opacity=".9"/>
  </g>
  <g transform="translate(212 53)">
    <text x="0" y="57" fill="#111827" font-family="Inter, Arial, Helvetica, sans-serif" font-size="62" font-weight="800" letter-spacing="0">dicomqc</text>
    <text x="3" y="96" fill="#119b8f" font-family="Inter, Arial, Helvetica, sans-serif" font-size="22" font-weight="700" letter-spacing="0">policy-driven DICOM release audit</text>
  </g>
</svg>
